<?xml version="1.0" encoding="UTF-8" standalone="no"?>
<!DOCTYPE svg PUBLIC "-//W3C//DTD SVG 1.1//EN"
 "http://www.w3.org/Graphics/SVG/1.1/DTD/svg11.dtd">
<!-- Generated by graphviz version 12.0.0 (0)
 -->
<!-- Pages: 1 -->
<svg width="308pt" height="403pt"
 viewBox="0.00 0.00 308.48 403.00" xmlns="http://www.w3.org/2000/svg" xmlns:xlink="http://www.w3.org/1999/xlink">
<g id="graph0" class="graph" transform="scale(1 1) rotate(0) translate(4 399)">
<polygon fill="white" stroke="none" points="-4,4 -4,-399 304.48,-399 304.48,4 -4,4"/>
<g id="clust1" class="cluster">
<title>cluster_0</title>
<polygon fill="none" stroke="white" points="8,-8 8,-387 132.84,-387 132.84,-8 8,-8"/>
<text text-anchor="middle" x="70.42" y="-369.7" font-family="Times,serif" font-size="14.00">inputs</text>
</g>
<g id="clust2" class="cluster">
<title>cluster_2</title>
<polygon fill="none" stroke="white" points="176.84,-133 176.84,-273 292.48,-273 292.48,-133 176.84,-133"/>
<text text-anchor="middle" x="234.66" y="-255.7" font-family="Times,serif" font-size="14.00">output</text>
</g>
<!-- boring=1 -->
<g id="node1" class="node">
<title>boring=1</title>
<ellipse fill="none" stroke="black" cx="70.42" cy="-309" rx="45.21" ry="45.21"/>
<text text-anchor="middle" x="70.42" y="-303.95" font-family="Times,serif" font-size="14.00">boring=1</text>
</g>
<!-- y_hat=pos -->
<g id="node4" class="node">
<title>y_hat=pos</title>
<ellipse fill="none" stroke="black" cx="234.66" cy="-191" rx="49.82" ry="49.82"/>
<text text-anchor="middle" x="234.66" y="-185.95" font-family="Times,serif" font-size="14.00">y_hat=pos</text>
</g>
<!-- boring=1&#45;&gt;y_hat=pos -->
<g id="edge1" class="edge">
<title>boring=1&#45;&gt;y_hat=pos</title>
<path fill="none" stroke="black" d="M107.43,-282.81C130.11,-266.32 159.69,-244.8 184.51,-226.75"/>
<polygon fill="black" stroke="black" points="186.52,-229.62 192.55,-220.9 182.4,-223.95 186.52,-229.62"/>
<text text-anchor="middle" x="154.84" y="-256.2" font-family="Times,serif" font-size="14.00">&#45;1.4</text>
</g>
<!-- excellent=1 -->
<g id="node2" class="node">
<title>excellent=1</title>
<ellipse fill="none" stroke="black" cx="70.42" cy="-191" rx="54.42" ry="54.42"/>
<text text-anchor="middle" x="70.42" y="-185.95" font-family="Times,serif" font-size="14.00">excellent=1</text>
</g>
<!-- excellent=1&#45;&gt;y_hat=pos -->
<g id="edge2" class="edge">
<title>excellent=1&#45;&gt;y_hat=pos</title>
<path fill="none" stroke="black" d="M124.99,-191C140.44,-191 157.4,-191 173.24,-191"/>
<polygon fill="black" stroke="black" points="173.02,-194.5 183.02,-191 173.02,-187.5 173.02,-194.5"/>
<text text-anchor="middle" x="154.84" y="-194.2" font-family="Times,serif" font-size="14.00">1.93</text>
</g>
<!-- flawless=1 -->
<g id="node3" class="node">
<title>flawless=1</title>
<ellipse fill="none" stroke="black" cx="70.42" cy="-67" rx="51.35" ry="51.35"/>
<text text-anchor="middle" x="70.42" y="-61.95" font-family="Times,serif" font-size="14.00">flawless=1</text>
</g>
<!-- flawless=1&#45;&gt;y_hat=pos -->
<g id="edge3" class="edge">
<title>flawless=1&#45;&gt;y_hat=pos</title>
<path fill="none" stroke="black" d="M111.94,-97.97C134.23,-115.01 162.03,-136.25 185.43,-154.14"/>
<polygon fill="black" stroke="black" points="183.22,-156.85 193.29,-160.15 187.47,-151.29 183.22,-156.85"/>
<text text-anchor="middle" x="154.84" y="-139.2" font-family="Times,serif" font-size="14.00">1.43</text>
</g>
</g>
</svg>