<?xml version="1.0" encoding="UTF-8" standalone="no"?>
<!DOCTYPE svg PUBLIC "-//W3C//DTD SVG 1.1//EN"
 "http://www.w3.org/Graphics/SVG/1.1/DTD/svg11.dtd">
<!-- Generated by graphviz version 12.0.0 (0)
 -->
<!-- Pages: 1 -->
<svg width="376pt" height="263pt"
 viewBox="0.00 0.00 376.00 263.00" xmlns="http://www.w3.org/2000/svg" xmlns:xlink="http://www.w3.org/1999/xlink">
<g id="graph0" class="graph" transform="scale(1 1) rotate(0) translate(4 259)">
<polygon fill="white" stroke="none" points="-4,4 -4,-259 372,-259 372,4 -4,4"/>
<g id="clust1" class="cluster">
<title>cluster_0</title>
<polygon fill="none" stroke="white" points="8,-8 8,-247 60,-247 60,-8 8,-8"/>
<text text-anchor="middle" x="34" y="-229.7" font-family="Times,serif" font-size="14.00">inputs</text>
</g>
<g id="clust2" class="cluster">
<title>cluster_1</title>
<polygon fill="none" stroke="white" points="80,-35 80,-220 174,-220 174,-35 80,-35"/>
<text text-anchor="middle" x="127" y="-202.7" font-family="Times,serif" font-size="14.00">hidden layer 1</text>
</g>
<g id="clust3" class="cluster">
<title>cluster_2</title>
<polygon fill="none" stroke="white" points="194,-35 194,-220 288,-220 288,-35 194,-35"/>
<text text-anchor="middle" x="241" y="-202.7" font-family="Times,serif" font-size="14.00">hidden layer 2</text>
</g>
<g id="clust4" class="cluster">
<title>cluster_3</title>
<polygon fill="none" stroke="white" points="308,-89 308,-166 360,-166 360,-89 308,-89"/>
<text text-anchor="middle" x="334" y="-148.7" font-family="Times,serif" font-size="14.00">output</text>
</g>
<!-- x[0] -->
<g id="node1" class="node">
<title>x[0]</title>
<ellipse fill="none" stroke="black" cx="34" cy="-34" rx="18" ry="18"/>
<text text-anchor="middle" x="34" y="-28.95" font-family="Times,serif" font-size="14.00">x[0]</text>
</g>
<!-- h1[0] -->
<g id="node5" class="node">
<title>h1[0]</title>
<ellipse fill="none" stroke="black" cx="126.5" cy="-115" rx="18" ry="18"/>
<text text-anchor="middle" x="126.5" y="-109.95" font-family="Times,serif" font-size="14.00">h1[0]</text>
</g>
<!-- x[0]&#45;&gt;h1[0] -->
<g id="edge1" class="edge">
<title>x[0]&#45;&gt;h1[0]</title>
<path fill="none" stroke="black" d="M47.97,-45.61C62.62,-58.72 86.69,-80.26 104.13,-95.87"/>
<polygon fill="black" stroke="black" points="101.64,-98.35 111.43,-102.41 106.31,-93.13 101.64,-98.35"/>
</g>
<!-- h1[1] -->
<g id="node6" class="node">
<title>h1[1]</title>
<ellipse fill="none" stroke="black" cx="126.5" cy="-169" rx="18" ry="18"/>
<text text-anchor="middle" x="126.5" y="-163.95" font-family="Times,serif" font-size="14.00">h1[1]</text>
</g>
<!-- x[0]&#45;&gt;h1[1] -->
<g id="edge2" class="edge">
<title>x[0]&#45;&gt;h1[1]</title>
<path fill="none" stroke="black" d="M44.86,-48.7C60.36,-71.83 90.6,-116.95 109.33,-144.87"/>
<polygon fill="black" stroke="black" points="106.34,-146.7 114.81,-153.06 112.15,-142.8 106.34,-146.7"/>
</g>
<!-- h1[2] -->
<g id="node7" class="node">
<title>h1[2]</title>
<ellipse fill="none" stroke="black" cx="126.5" cy="-61" rx="18" ry="18"/>
<text text-anchor="middle" x="126.5" y="-55.95" font-family="Times,serif" font-size="14.00">h1[2]</text>
</g>
<!-- x[0]&#45;&gt;h1[2] -->
<g id="edge3" class="edge">
<title>x[0]&#45;&gt;h1[2]</title>
<path fill="none" stroke="black" d="M51.6,-38.95C64.53,-42.81 82.76,-48.25 97.88,-52.76"/>
<polygon fill="black" stroke="black" points="96.67,-56.05 107.25,-55.56 98.67,-49.34 96.67,-56.05"/>
</g>
<!-- x[1] -->
<g id="node2" class="node">
<title>x[1]</title>
<ellipse fill="none" stroke="black" cx="34" cy="-88" rx="18" ry="18"/>
<text text-anchor="middle" x="34" y="-82.95" font-family="Times,serif" font-size="14.00">x[1]</text>
</g>
<!-- x[1]&#45;&gt;h1[0] -->
<g id="edge4" class="edge">
<title>x[1]&#45;&gt;h1[0]</title>
<path fill="none" stroke="black" d="M51.6,-92.95C64.53,-96.81 82.76,-102.25 97.88,-106.76"/>
<polygon fill="black" stroke="black" points="96.67,-110.05 107.25,-109.56 98.67,-103.34 96.67,-110.05"/>
</g>
<!-- x[1]&#45;&gt;h1[1] -->
<g id="edge5" class="edge">
<title>x[1]&#45;&gt;h1[1]</title>
<path fill="none" stroke="black" d="M47.97,-99.61C62.62,-112.72 86.69,-134.26 104.13,-149.87"/>
<polygon fill="black" stroke="black" points="101.64,-152.35 111.43,-156.41 106.31,-147.13 101.64,-152.35"/>
</g>
<!-- x[1]&#45;&gt;h1[2] -->
<g id="edge6" class="edge">
<title>x[1]&#45;&gt;h1[2]</title>
<path fill="none" stroke="black" d="M51.6,-83.05C64.53,-79.19 82.76,-73.75 97.88,-69.24"/>
<polygon fill="black" stroke="black" points="98.67,-72.66 107.25,-66.44 96.67,-65.95 98.67,-72.66"/>
</g>
<!-- x[2] -->
<g id="node3" class="node">
<title>x[2]</title>
<ellipse fill="none" stroke="black" cx="34" cy="-142" rx="18" ry="18"/>
<text text-anchor="middle" x="34" y="-136.95" font-family="Times,serif" font-size="14.00">x[2]</text>
</g>
<!-- x[2]&#45;&gt;h1[0] -->
<g id="edge7" class="edge">
<title>x[2]&#45;&gt;h1[0]</title>
<path fill="none" stroke="black" d="M51.6,-137.05C64.53,-133.19 82.76,-127.75 97.88,-123.24"/>
<polygon fill="black" stroke="black" points="98.67,-126.66 107.25,-120.44 96.67,-119.95 98.67,-126.66"/>
</g>
<!-- x[2]&#45;&gt;h1[1] -->
<g id="edge8" class="edge">
<title>x[2]&#45;&gt;h1[1]</title>
<path fill="none" stroke="black" d="M51.6,-146.95C64.53,-150.81 82.76,-156.25 97.88,-160.76"/>
<polygon fill="black" stroke="black" points="96.67,-164.05 107.25,-163.56 98.67,-157.34 96.67,-164.05"/>
</g>
<!-- x[2]&#45;&gt;h1[2] -->
<g id="edge9" class="edge">
<title>x[2]&#45;&gt;h1[2]</title>
<path fill="none" stroke="black" d="M47.97,-130.39C62.62,-117.28 86.69,-95.74 104.13,-80.13"/>
<polygon fill="black" stroke="black" points="106.31,-82.87 111.43,-73.59 101.64,-77.65 106.31,-82.87"/>
</g>
<!-- x[3] -->
<g id="node4" class="node">
<title>x[3]</title>
<ellipse fill="none" stroke="black" cx="34" cy="-196" rx="18" ry="18"/>
<text text-anchor="middle" x="34" y="-190.95" font-family="Times,serif" font-size="14.00">x[3]</text>
</g>
<!-- x[3]&#45;&gt;h1[0] -->
<g id="edge10" class="edge">
<title>x[3]&#45;&gt;h1[0]</title>
<path fill="none" stroke="black" d="M47.97,-184.39C62.62,-171.28 86.69,-149.74 104.13,-134.13"/>
<polygon fill="black" stroke="black" points="106.31,-136.87 111.43,-127.59 101.64,-131.65 106.31,-136.87"/>
</g>
<!-- x[3]&#45;&gt;h1[1] -->
<g id="edge11" class="edge">
<title>x[3]&#45;&gt;h1[1]</title>
<path fill="none" stroke="black" d="M51.6,-191.05C64.53,-187.19 82.76,-181.75 97.88,-177.24"/>
<polygon fill="black" stroke="black" points="98.67,-180.66 107.25,-174.44 96.67,-173.95 98.67,-180.66"/>
</g>
<!-- x[3]&#45;&gt;h1[2] -->
<g id="edge12" class="edge">
<title>x[3]&#45;&gt;h1[2]</title>
<path fill="none" stroke="black" d="M44.86,-181.3C60.36,-158.17 90.6,-113.05 109.33,-85.13"/>
<polygon fill="black" stroke="black" points="112.15,-87.2 114.81,-76.94 106.34,-83.3 112.15,-87.2"/>
</g>
<!-- h2[0] -->
<g id="node8" class="node">
<title>h2[0]</title>
<ellipse fill="none" stroke="black" cx="240.5" cy="-115" rx="18" ry="18"/>
<text text-anchor="middle" x="240.5" y="-109.95" font-family="Times,serif" font-size="14.00">h2[0]</text>
</g>
<!-- h1[0]&#45;&gt;h2[0] -->
<g id="edge13" class="edge">
<title>h1[0]&#45;&gt;h2[0]</title>
<path fill="none" stroke="black" d="M144.51,-115C162.11,-115 189.9,-115 210.89,-115"/>
<polygon fill="black" stroke="black" points="210.82,-118.5 220.82,-115 210.82,-111.5 210.82,-118.5"/>
</g>
<!-- h2[1] -->
<g id="node9" class="node">
<title>h2[1]</title>
<ellipse fill="none" stroke="black" cx="240.5" cy="-169" rx="18" ry="18"/>
<text text-anchor="middle" x="240.5" y="-163.95" font-family="Times,serif" font-size="14.00">h2[1]</text>
</g>
<!-- h1[0]&#45;&gt;h2[1] -->
<g id="edge14" class="edge">
<title>h1[0]&#45;&gt;h2[1]</title>
<path fill="none" stroke="black" d="M143.07,-122.51C161.28,-131.28 191.68,-145.94 213.48,-156.46"/>
<polygon fill="black" stroke="black" points="211.81,-159.53 222.33,-160.72 214.85,-153.23 211.81,-159.53"/>
</g>
<!-- h2[2] -->
<g id="node10" class="node">
<title>h2[2]</title>
<ellipse fill="none" stroke="black" cx="240.5" cy="-61" rx="18" ry="18"/>
<text text-anchor="middle" x="240.5" y="-55.95" font-family="Times,serif" font-size="14.00">h2[2]</text>
</g>
<!-- h1[0]&#45;&gt;h2[2] -->
<g id="edge15" class="edge">
<title>h1[0]&#45;&gt;h2[2]</title>
<path fill="none" stroke="black" d="M143.07,-107.49C161.28,-98.72 191.68,-84.06 213.48,-73.54"/>
<polygon fill="black" stroke="black" points="214.85,-76.77 222.33,-69.28 211.81,-70.47 214.85,-76.77"/>
</g>
<!-- h1[1]&#45;&gt;h2[0] -->
<g id="edge16" class="edge">
<title>h1[1]&#45;&gt;h2[0]</title>
<path fill="none" stroke="black" d="M143.07,-161.49C161.28,-152.72 191.68,-138.06 213.48,-127.54"/>
<polygon fill="black" stroke="black" points="214.85,-130.77 222.33,-123.28 211.81,-124.47 214.85,-130.77"/>
</g>
<!-- h1[1]&#45;&gt;h2[1] -->
<g id="edge17" class="edge">
<title>h1[1]&#45;&gt;h2[1]</title>
<path fill="none" stroke="black" d="M144.51,-169C162.11,-169 189.9,-169 210.89,-169"/>
<polygon fill="black" stroke="black" points="210.82,-172.5 220.82,-169 210.82,-165.5 210.82,-172.5"/>
</g>
<!-- h1[1]&#45;&gt;h2[2] -->
<g id="edge18" class="edge">
<title>h1[1]&#45;&gt;h2[2]</title>
<path fill="none" stroke="black" d="M139.91,-157.03C159,-138.62 195.78,-103.16 218.9,-80.86"/>
<polygon fill="black" stroke="black" points="221.17,-83.54 225.94,-74.07 216.31,-78.5 221.17,-83.54"/>
</g>
<!-- h1[2]&#45;&gt;h2[0] -->
<g id="edge19" class="edge">
<title>h1[2]&#45;&gt;h2[0]</title>
<path fill="none" stroke="black" d="M143.07,-68.51C161.28,-77.28 191.68,-91.94 213.48,-102.46"/>
<polygon fill="black" stroke="black" points="211.81,-105.53 222.33,-106.72 214.85,-99.23 211.81,-105.53"/>
</g>
<!-- h1[2]&#45;&gt;h2[1] -->
<g id="edge20" class="edge">
<title>h1[2]&#45;&gt;h2[1]</title>
<path fill="none" stroke="black" d="M139.91,-72.97C159,-91.38 195.78,-126.84 218.9,-149.14"/>
<polygon fill="black" stroke="black" points="216.31,-151.5 225.94,-155.93 221.17,-146.46 216.31,-151.5"/>
</g>
<!-- h1[2]&#45;&gt;h2[2] -->
<g id="edge21" class="edge">
<title>h1[2]&#45;&gt;h2[2]</title>
<path fill="none" stroke="black" d="M144.51,-61C162.11,-61 189.9,-61 210.89,-61"/>
<polygon fill="black" stroke="black" points="210.82,-64.5 220.82,-61 210.82,-57.5 210.82,-64.5"/>
</g>
<!-- y -->
<g id="node11" class="node">
<title>y</title>
<ellipse fill="none" stroke="black" cx="334" cy="-115" rx="18" ry="18"/>
<text text-anchor="middle" x="334" y="-109.95" font-family="Times,serif" font-size="14.00">y</text>
</g>
<!-- h2[0]&#45;&gt;y -->
<g id="edge22" class="edge">
<title>h2[0]&#45;&gt;y</title>
<path fill="none" stroke="black" d="M258.71,-115C271.54,-115 289.35,-115 304.31,-115"/>
<polygon fill="black" stroke="black" points="304.04,-118.5 314.04,-115 304.04,-111.5 304.04,-118.5"/>
</g>
<!-- h2[1]&#45;&gt;y -->
<g id="edge23" class="edge">
<title>h2[1]&#45;&gt;y</title>
<path fill="none" stroke="black" d="M256.61,-160.08C270.65,-151.8 291.81,-139.31 308.31,-129.57"/>
<polygon fill="black" stroke="black" points="309.73,-132.8 316.56,-124.7 306.17,-126.77 309.73,-132.8"/>
</g>
<!-- h2[2]&#45;&gt;y -->
<g id="edge24" class="edge">
<title>h2[2]&#45;&gt;y</title>
<path fill="none" stroke="black" d="M256.61,-69.92C270.65,-78.2 291.81,-90.69 308.31,-100.43"/>
<polygon fill="black" stroke="black" points="306.17,-103.23 316.56,-105.3 309.73,-97.2 306.17,-103.23"/>
</g>
</g>
</svg>