<?xml version="1.0" encoding="UTF-8" standalone="no"?>
<!DOCTYPE svg PUBLIC "-//W3C//DTD SVG 1.1//EN"
 "http://www.w3.org/Graphics/SVG/1.1/DTD/svg11.dtd">
<!-- Generated by graphviz version 2.43.0 (0)
 -->
<!-- Title: %3 Pages: 1 -->
<svg width="360pt" height="465pt"
 viewBox="0.00 0.00 360.18 465.00" xmlns="http://www.w3.org/2000/svg" xmlns:xlink="http://www.w3.org/1999/xlink">
<g id="graph0" class="graph" transform="scale(1 1) rotate(0) translate(4 461)">
<title>%3</title>
<polygon fill="white" stroke="transparent" points="-4,4 -4,-461 356.18,-461 356.18,4 -4,4"/>
<g id="clust1" class="cluster">
<title>cluster_0</title>
<polygon fill="none" stroke="white" points="8,-8 8,-449 156.59,-449 156.59,-8 8,-8"/>
<text text-anchor="middle" x="82.29" y="-433.8" font-family="Times,serif" font-size="14.00">inputs</text>
</g>
<g id="clust2" class="cluster">
<title>cluster_2</title>
<polygon fill="none" stroke="white" points="208.59,-156 208.59,-315 344.18,-315 344.18,-156 208.59,-156"/>
<text text-anchor="middle" x="276.38" y="-299.8" font-family="Times,serif" font-size="14.00">output</text>
</g>
<!-- boring=1 -->
<g id="node1" class="node">
<title>boring=1</title>
<ellipse fill="none" stroke="black" cx="82.29" cy="-363" rx="54.69" ry="54.69"/>
<text text-anchor="middle" x="82.29" y="-359.3" font-family="Times,serif" font-size="14.00">boring=1</text>
</g>
<!-- y_hat=pos -->
<g id="node4" class="node">
<title>y_hat=pos</title>
<ellipse fill="none" stroke="black" cx="276.38" cy="-224" rx="59.59" ry="59.59"/>
<text text-anchor="middle" x="276.38" y="-220.3" font-family="Times,serif" font-size="14.00">y_hat=pos</text>
</g>
<!-- boring=1&#45;&gt;y_hat=pos -->
<g id="edge1" class="edge">
<title>boring=1&#45;&gt;y_hat=pos</title>
<path fill="none" stroke="black" d="M126.88,-331.46C154.3,-311.62 189.95,-285.82 219.45,-264.48"/>
<polygon fill="black" stroke="black" points="221.54,-267.28 227.59,-258.58 217.44,-261.61 221.54,-267.28"/>
<text text-anchor="middle" x="182.59" y="-304.8" font-family="Times,serif" font-size="14.00">&#45;1.4</text>
</g>
<!-- excellent=1 -->
<g id="node2" class="node">
<title>excellent=1</title>
<ellipse fill="none" stroke="black" cx="82.29" cy="-224" rx="66.09" ry="66.09"/>
<text text-anchor="middle" x="82.29" y="-220.3" font-family="Times,serif" font-size="14.00">excellent=1</text>
</g>
<!-- excellent=1&#45;&gt;y_hat=pos -->
<g id="edge2" class="edge">
<title>excellent=1&#45;&gt;y_hat=pos</title>
<path fill="none" stroke="black" d="M148.59,-224C167.13,-224 187.38,-224 206.14,-224"/>
<polygon fill="black" stroke="black" points="206.39,-227.5 216.39,-224 206.39,-220.5 206.39,-227.5"/>
<text text-anchor="middle" x="182.59" y="-227.8" font-family="Times,serif" font-size="14.00">1.93</text>
</g>
<!-- flawless=1 -->
<g id="node3" class="node">
<title>flawless=1</title>
<ellipse fill="none" stroke="black" cx="82.29" cy="-78" rx="61.99" ry="61.99"/>
<text text-anchor="middle" x="82.29" y="-74.3" font-family="Times,serif" font-size="14.00">flawless=1</text>
</g>
<!-- flawless=1&#45;&gt;y_hat=pos -->
<g id="edge3" class="edge">
<title>flawless=1&#45;&gt;y_hat=pos</title>
<path fill="none" stroke="black" d="M132.26,-115.22C159.07,-135.6 192.38,-160.92 220.12,-182"/>
<polygon fill="black" stroke="black" points="218.08,-184.84 228.16,-188.11 222.32,-179.27 218.08,-184.84"/>
<text text-anchor="middle" x="182.59" y="-167.8" font-family="Times,serif" font-size="14.00">1.43</text>
</g>
</g>
</svg>