<?xml version="1.0" encoding="UTF-8" standalone="no"?>
<!DOCTYPE svg PUBLIC "-//W3C//DTD SVG 1.1//EN"
 "http://www.w3.org/Graphics/SVG/1.1/DTD/svg11.dtd">
<!-- Generated by graphviz version 12.0.0 (0)
 -->
<!-- Pages: 1 -->
<svg width="174pt" height="263pt"
 viewBox="0.00 0.00 173.50 263.00" xmlns="http://www.w3.org/2000/svg" xmlns:xlink="http://www.w3.org/1999/xlink">
<g id="graph0" class="graph" transform="scale(1 1) rotate(0) translate(4 259)">
<polygon fill="white" stroke="none" points="-4,4 -4,-259 169.5,-259 169.5,4 -4,4"/>
<g id="clust1" class="cluster">
<title>cluster_0</title>
<polygon fill="none" stroke="white" points="8,-8 8,-247 60,-247 60,-8 8,-8"/>
<text text-anchor="middle" x="34" y="-229.7" font-family="Times,serif" font-size="14.00">inputs</text>
</g>
<g id="clust2" class="cluster">
<title>cluster_2</title>
<polygon fill="none" stroke="white" points="105.5,-88 105.5,-165 157.5,-165 157.5,-88 105.5,-88"/>
<text text-anchor="middle" x="131.5" y="-147.7" font-family="Times,serif" font-size="14.00">output</text>
</g>
<!-- x[0] -->
<g id="node1" class="node">
<title>x[0]</title>
<ellipse fill="none" stroke="black" cx="34" cy="-196" rx="18" ry="18"/>
<text text-anchor="middle" x="34" y="-190.95" font-family="Times,serif" font-size="14.00">x[0]</text>
</g>
<!-- y -->
<g id="node5" class="node">
<title>y</title>
<ellipse fill="none" stroke="black" cx="131.5" cy="-114" rx="18" ry="18"/>
<text text-anchor="middle" x="131.5" y="-108.95" font-family="Times,serif" font-size="14.00">y</text>
</g>
<!-- x[0]&#45;&gt;y -->
<g id="edge1" class="edge">
<title>x[0]&#45;&gt;y</title>
<path fill="none" stroke="black" d="M48.28,-184.6C63.89,-171.2 90.02,-148.76 108.63,-132.78"/>
<polygon fill="black" stroke="black" points="110.88,-135.46 116.19,-126.29 106.32,-130.15 110.88,-135.46"/>
<text text-anchor="middle" x="82.75" y="-173.2" font-family="Times,serif" font-size="14.00">w[0]</text>
</g>
<!-- x[1] -->
<g id="node2" class="node">
<title>x[1]</title>
<ellipse fill="none" stroke="black" cx="34" cy="-142" rx="18" ry="18"/>
<text text-anchor="middle" x="34" y="-136.95" font-family="Times,serif" font-size="14.00">x[1]</text>
</g>
<!-- x[1]&#45;&gt;y -->
<g id="edge2" class="edge">
<title>x[1]&#45;&gt;y</title>
<path fill="none" stroke="black" d="M51.63,-137.12C65.79,-132.97 86.41,-126.93 103.01,-122.06"/>
<polygon fill="black" stroke="black" points="103.67,-125.51 112.28,-119.34 101.7,-118.8 103.67,-125.51"/>
<text text-anchor="middle" x="82.75" y="-134.2" font-family="Times,serif" font-size="14.00">w[1]</text>
</g>
<!-- x[2] -->
<g id="node3" class="node">
<title>x[2]</title>
<ellipse fill="none" stroke="black" cx="34" cy="-88" rx="18" ry="18"/>
<text text-anchor="middle" x="34" y="-82.95" font-family="Times,serif" font-size="14.00">x[2]</text>
</g>
<!-- x[2]&#45;&gt;y -->
<g id="edge3" class="edge">
<title>x[2]&#45;&gt;y</title>
<path fill="none" stroke="black" d="M51.63,-92.53C65.79,-96.38 86.41,-102 103.01,-106.52"/>
<polygon fill="black" stroke="black" points="101.71,-109.79 112.27,-109.04 103.55,-103.03 101.71,-109.79"/>
<text text-anchor="middle" x="82.75" y="-102.2" font-family="Times,serif" font-size="14.00">w[2]</text>
</g>
<!-- x[3] -->
<g id="node4" class="node">
<title>x[3]</title>
<ellipse fill="none" stroke="black" cx="34" cy="-34" rx="18" ry="18"/>
<text text-anchor="middle" x="34" y="-28.95" font-family="Times,serif" font-size="14.00">x[3]</text>
</g>
<!-- x[3]&#45;&gt;y -->
<g id="edge4" class="edge">
<title>x[3]&#45;&gt;y</title>
<path fill="none" stroke="black" d="M48.28,-45.12C63.8,-58.13 89.72,-79.84 108.32,-95.42"/>
<polygon fill="black" stroke="black" points="105.95,-98 115.87,-101.74 110.45,-92.64 105.95,-98"/>
<text text-anchor="middle" x="82.75" y="-76.2" font-family="Times,serif" font-size="14.00">w[3]</text>
</g>
</g>
</svg>