<?xml version="1.0" encoding="UTF-8" standalone="no"?>
<!DOCTYPE svg PUBLIC "-//W3C//DTD SVG 1.1//EN"
 "http://www.w3.org/Graphics/SVG/1.1/DTD/svg11.dtd">
<!-- Generated by graphviz version 12.0.0 (0)
 -->
<!-- Pages: 1 -->
<svg width="252pt" height="263pt"
 viewBox="0.00 0.00 251.50 263.00" xmlns="http://www.w3.org/2000/svg" xmlns:xlink="http://www.w3.org/1999/xlink">
<g id="graph0" class="graph" transform="scale(1 1) rotate(0) translate(4 259)">
<polygon fill="white" stroke="none" points="-4,4 -4,-259 247.5,-259 247.5,4 -4,4"/>
<g id="clust1" class="cluster">
<title>cluster_0</title>
<polygon fill="none" stroke="white" points="8,-8 8,-247 60,-247 60,-8 8,-8"/>
<text text-anchor="middle" x="34" y="-229.7" font-family="Times,serif" font-size="14.00">inputs</text>
</g>
<g id="clust2" class="cluster">
<title>cluster_1</title>
<polygon fill="none" stroke="white" points="80,-35 80,-220 163.5,-220 163.5,-35 80,-35"/>
<text text-anchor="middle" x="121.75" y="-202.7" font-family="Times,serif" font-size="14.00">hidden layer</text>
</g>
<g id="clust3" class="cluster">
<title>cluster_2</title>
<polygon fill="none" stroke="white" points="183.5,-89 183.5,-166 235.5,-166 235.5,-89 183.5,-89"/>
<text text-anchor="middle" x="209.5" y="-148.7" font-family="Times,serif" font-size="14.00">output</text>
</g>
<!-- x[0] -->
<g id="node1" class="node">
<title>x[0]</title>
<ellipse fill="none" stroke="black" cx="34" cy="-34" rx="18" ry="18"/>
<text text-anchor="middle" x="34" y="-28.95" font-family="Times,serif" font-size="14.00">x[0]</text>
</g>
<!-- h0 -->
<g id="node5" class="node">
<title>h0</title>
<ellipse fill="none" stroke="black" cx="121.25" cy="-115" rx="18" ry="18"/>
<text text-anchor="middle" x="121.25" y="-109.95" font-family="Times,serif" font-size="14.00">h[0]</text>
</g>
<!-- x[0]&#45;&gt;h0 -->
<g id="edge1" class="edge">
<title>x[0]&#45;&gt;h0</title>
<path fill="none" stroke="black" d="M47.58,-45.95C61.18,-58.87 83.08,-79.68 99.29,-95.08"/>
<polygon fill="black" stroke="black" points="96.86,-97.61 106.52,-101.96 101.68,-92.53 96.86,-97.61"/>
</g>
<!-- h1 -->
<g id="node6" class="node">
<title>h1</title>
<ellipse fill="none" stroke="black" cx="121.25" cy="-169" rx="18" ry="18"/>
<text text-anchor="middle" x="121.25" y="-163.95" font-family="Times,serif" font-size="14.00">h[1]</text>
</g>
<!-- x[0]&#45;&gt;h1 -->
<g id="edge2" class="edge">
<title>x[0]&#45;&gt;h1</title>
<path fill="none" stroke="black" d="M44.45,-48.96C59.04,-72.07 87.22,-116.69 104.8,-144.54"/>
<polygon fill="black" stroke="black" points="101.65,-146.1 109.95,-152.69 107.57,-142.37 101.65,-146.1"/>
</g>
<!-- h2 -->
<g id="node7" class="node">
<title>h2</title>
<ellipse fill="none" stroke="black" cx="121.25" cy="-61" rx="18" ry="18"/>
<text text-anchor="middle" x="121.25" y="-55.95" font-family="Times,serif" font-size="14.00">h[2]</text>
</g>
<!-- x[0]&#45;&gt;h2 -->
<g id="edge3" class="edge">
<title>x[0]&#45;&gt;h2</title>
<path fill="none" stroke="black" d="M51.44,-39.21C63.16,-42.92 79.18,-47.99 92.82,-52.31"/>
<polygon fill="black" stroke="black" points="91.54,-55.58 102.13,-55.26 93.65,-48.9 91.54,-55.58"/>
</g>
<!-- x[1] -->
<g id="node2" class="node">
<title>x[1]</title>
<ellipse fill="none" stroke="black" cx="34" cy="-88" rx="18" ry="18"/>
<text text-anchor="middle" x="34" y="-82.95" font-family="Times,serif" font-size="14.00">x[1]</text>
</g>
<!-- x[1]&#45;&gt;h0 -->
<g id="edge4" class="edge">
<title>x[1]&#45;&gt;h0</title>
<path fill="none" stroke="black" d="M51.44,-93.21C63.16,-96.92 79.18,-101.99 92.82,-106.31"/>
<polygon fill="black" stroke="black" points="91.54,-109.58 102.13,-109.26 93.65,-102.9 91.54,-109.58"/>
</g>
<!-- x[1]&#45;&gt;h1 -->
<g id="edge5" class="edge">
<title>x[1]&#45;&gt;h1</title>
<path fill="none" stroke="black" d="M47.58,-99.95C61.18,-112.87 83.08,-133.68 99.29,-149.08"/>
<polygon fill="black" stroke="black" points="96.86,-151.61 106.52,-155.96 101.68,-146.53 96.86,-151.61"/>
</g>
<!-- x[1]&#45;&gt;h2 -->
<g id="edge6" class="edge">
<title>x[1]&#45;&gt;h2</title>
<path fill="none" stroke="black" d="M51.44,-82.79C63.16,-79.08 79.18,-74.01 92.82,-69.69"/>
<polygon fill="black" stroke="black" points="93.65,-73.1 102.13,-66.74 91.54,-66.42 93.65,-73.1"/>
</g>
<!-- x[2] -->
<g id="node3" class="node">
<title>x[2]</title>
<ellipse fill="none" stroke="black" cx="34" cy="-142" rx="18" ry="18"/>
<text text-anchor="middle" x="34" y="-136.95" font-family="Times,serif" font-size="14.00">x[2]</text>
</g>
<!-- x[2]&#45;&gt;h0 -->
<g id="edge7" class="edge">
<title>x[2]&#45;&gt;h0</title>
<path fill="none" stroke="black" d="M51.44,-136.79C63.16,-133.08 79.18,-128.01 92.82,-123.69"/>
<polygon fill="black" stroke="black" points="93.65,-127.1 102.13,-120.74 91.54,-120.42 93.65,-127.1"/>
</g>
<!-- x[2]&#45;&gt;h1 -->
<g id="edge8" class="edge">
<title>x[2]&#45;&gt;h1</title>
<path fill="none" stroke="black" d="M51.44,-147.21C63.16,-150.92 79.18,-155.99 92.82,-160.31"/>
<polygon fill="black" stroke="black" points="91.54,-163.58 102.13,-163.26 93.65,-156.9 91.54,-163.58"/>
</g>
<!-- x[2]&#45;&gt;h2 -->
<g id="edge9" class="edge">
<title>x[2]&#45;&gt;h2</title>
<path fill="none" stroke="black" d="M47.58,-130.05C61.18,-117.13 83.08,-96.32 99.29,-80.92"/>
<polygon fill="black" stroke="black" points="101.68,-83.47 106.52,-74.04 96.86,-78.39 101.68,-83.47"/>
</g>
<!-- x[3] -->
<g id="node4" class="node">
<title>x[3]</title>
<ellipse fill="none" stroke="black" cx="34" cy="-196" rx="18" ry="18"/>
<text text-anchor="middle" x="34" y="-190.95" font-family="Times,serif" font-size="14.00">x[3]</text>
</g>
<!-- x[3]&#45;&gt;h0 -->
<g id="edge10" class="edge">
<title>x[3]&#45;&gt;h0</title>
<path fill="none" stroke="black" d="M47.58,-184.05C61.18,-171.13 83.08,-150.32 99.29,-134.92"/>
<polygon fill="black" stroke="black" points="101.68,-137.47 106.52,-128.04 96.86,-132.39 101.68,-137.47"/>
</g>
<!-- x[3]&#45;&gt;h1 -->
<g id="edge11" class="edge">
<title>x[3]&#45;&gt;h1</title>
<path fill="none" stroke="black" d="M51.44,-190.79C63.16,-187.08 79.18,-182.01 92.82,-177.69"/>
<polygon fill="black" stroke="black" points="93.65,-181.1 102.13,-174.74 91.54,-174.42 93.65,-181.1"/>
</g>
<!-- x[3]&#45;&gt;h2 -->
<g id="edge12" class="edge">
<title>x[3]&#45;&gt;h2</title>
<path fill="none" stroke="black" d="M44.45,-181.04C59.04,-157.93 87.22,-113.31 104.8,-85.46"/>
<polygon fill="black" stroke="black" points="107.57,-87.63 109.95,-77.31 101.65,-83.9 107.57,-87.63"/>
</g>
<!-- y -->
<g id="node8" class="node">
<title>y</title>
<ellipse fill="none" stroke="black" cx="209.5" cy="-115" rx="18" ry="18"/>
<text text-anchor="middle" x="209.5" y="-109.95" font-family="Times,serif" font-size="14.00">y</text>
</g>
<!-- h0&#45;&gt;y -->
<g id="edge13" class="edge">
<title>h0&#45;&gt;y</title>
<path fill="none" stroke="black" d="M139.7,-115C151.16,-115 166.42,-115 179.65,-115"/>
<polygon fill="black" stroke="black" points="179.56,-118.5 189.56,-115 179.56,-111.5 179.56,-118.5"/>
</g>
<!-- h1&#45;&gt;y -->
<g id="edge14" class="edge">
<title>h1&#45;&gt;y</title>
<path fill="none" stroke="black" d="M136.88,-159.84C149.89,-151.69 169.16,-139.63 184.44,-130.06"/>
<polygon fill="black" stroke="black" points="185.9,-133.28 192.51,-125.01 182.18,-127.35 185.9,-133.28"/>
</g>
<!-- h2&#45;&gt;y -->
<g id="edge15" class="edge">
<title>h2&#45;&gt;y</title>
<path fill="none" stroke="black" d="M136.88,-70.16C149.89,-78.31 169.16,-90.37 184.44,-99.94"/>
<polygon fill="black" stroke="black" points="182.18,-102.65 192.51,-104.99 185.9,-96.72 182.18,-102.65"/>
</g>
</g>
</svg>